<?xml version="1.0" encoding="UTF-8" standalone="no"?>
<!DOCTYPE svg PUBLIC "-//W3C//DTD SVG 1.1//EN" "http://www.w3.org/Graphics/SVG/1.1/DTD/svg11.dtd">
<svg width="100%" height="100%" viewBox="0 0 260 280" version="1.1" xmlns="http://www.w3.org/2000/svg" xmlns:xlink="http://www.w3.org/1999/xlink" xml:space="preserve" xmlns:serif="http://www.serif.com/" style="fill-rule:evenodd;clip-rule:evenodd;stroke-linecap:round;stroke-linejoin:round;stroke-miterlimit:1.5;">
    <g transform="matrix(1,0,0,1,-48.163565,32.230662)">
        <g transform="matrix(1,0,0,1,47.857877,-9.73044)">
            <path d="M130.401,183.692L110.131,192.586L130.401,217.366L149.777,192.586L130.401,183.692Z" style="fill:rgb(181,181,181);stroke:black;stroke-opacity:0;stroke-width:1px;"/>
        </g>
        <g transform="matrix(1,0,0,1,47.857877,-9.73044)">
            <path d="M107.495,166.221L130.974,183.692L86.673,203.229L107.495,166.221Z" style="fill:rgb(139,139,139);stroke:black;stroke-opacity:0;stroke-width:1px;"/>
        </g>
        <g transform="matrix(-1,0,0,1,308.660308,-9.73044)">
            <path d="M108.291,166.221L130.401,184.084L86.673,203.229L108.291,166.221Z" style="fill:white;stroke:black;stroke-opacity:0;stroke-width:1px;"/>
        </g>
        <g transform="matrix(1,0,0,1,47.857877,-9.73044)">
            <path d="M116.345,61.698L129.591,70.652L105.103,94.598L116.345,61.698Z" style="fill:rgb(139,139,139);stroke:black;stroke-opacity:0;stroke-width:1px;"/>
        </g>
        <g transform="matrix(-1,0,0,1,308.336308,-9.73044)">
            <path d="M116.345,61.698L129.591,70.652L105.103,94.598L116.345,61.698Z" style="fill:rgb(166,166,166);stroke:black;stroke-opacity:0;stroke-width:1px;"/>
        </g>
        <g transform="matrix(1,0,0,1.013634,47.857877,-9.970871)">
            <path d="M130,17.634L116.345,60.981L130,70.132L144.102,61.286L130,17.634Z" style="fill:rgb(181,181,181);stroke:black;stroke-opacity:0;stroke-width:0.99px;"/>
        </g>
        <g transform="matrix(1,0,0,1,47.857877,-9.73044)">
            <path d="M116.345,61.171L82.098,78.058L104.619,95.071L116.345,61.171Z" style="fill:white;stroke:black;stroke-opacity:0;stroke-width:1px;"/>
        </g>
        <g transform="matrix(1,0,0,1.003653,47.857877,-10.401484)">
            <path d="M129.591,70.848L130.224,70.848L155.375,95.071L163.801,137.466L152.765,166.492L131.651,183.484L130.224,183.692L106.903,166.243L97.002,137.757L105.497,94.737L129.591,70.848Z" style="fill:rgb(219,219,219);stroke:black;stroke-opacity:0;stroke-width:1px;"/>
        </g>
        <g transform="matrix(-1,0,0,1,308.305631,-9.73044)">
            <path d="M116.345,61.171L82.098,78.058L104.619,95.071L116.345,61.171Z" style="fill:rgb(181,181,181);stroke:black;stroke-opacity:0;stroke-width:1px;"/>
        </g>
        <g transform="matrix(1,0,0,1,47.857877,-9.73044)">
            <path d="M130,17.634C130,17.634 103.738,36.888 82.822,77.224C92.612,71.808 116.142,61.388 116.142,61.388L130,17.634Z" style="fill:rgb(120,120,120);stroke:black;stroke-opacity:0;stroke-width:1px;"/>
        </g>
        <g transform="matrix(-1,0,0,1,307.960097,-9.73044)">
            <path d="M130,17.634C130,17.634 103.738,36.888 82.822,77.224C92.612,71.808 116.142,61.388 116.142,61.388L130,17.634Z" style="fill:rgb(154,154,154);stroke:black;stroke-opacity:0;stroke-width:1px;"/>
        </g>
        <g transform="matrix(1,0,0,1,47.857877,-9.73044)">
            <path d="M82.517,78.672L104.537,95.071C104.537,95.071 75.567,125.02 64.453,136.246C65.833,108.743 82.517,78.672 82.517,78.672Z" style="fill:rgb(181,181,181);stroke:black;stroke-opacity:0;stroke-width:1px;"/>
        </g>
        <g transform="matrix(-1,0,0,1,307.947252,-9.73044)">
            <path d="M82.517,78.672L104.537,95.071C104.537,95.071 75.567,125.02 64.453,136.246C65.833,108.743 82.517,78.672 82.517,78.672Z" style="fill:rgb(120,120,120);stroke:black;stroke-opacity:0;stroke-width:1px;"/>
        </g>
        <g transform="matrix(1,0,0,0.989317,47.857877,-8.720464)">
            <path d="M105.336,94.543L97.121,137.956L65.067,136.697L105.336,94.543Z" style="fill:rgb(120,120,120);stroke:black;stroke-opacity:0;stroke-width:1.01px;"/>
        </g>
        <g transform="matrix(-1,0,0,0.989317,308.560745,-8.720464)">
            <path d="M105.336,94.543L97.121,137.956L65.067,136.697L105.336,94.543Z" style="fill:rgb(154,154,154);stroke:black;stroke-opacity:0;stroke-width:1.01px;"/>
        </g>
        <g transform="matrix(1,0,0,1,47.857877,-9.73044)">
            <path d="M64.181,136.47L97.26,137.492L106.838,165.657L64.181,136.47Z" style="fill:rgb(181,181,181);stroke:black;stroke-opacity:0;stroke-width:1px;"/>
        </g>
        <g transform="matrix(-1,0,0,1,308.593882,-9.73044)">
            <path d="M64.181,136.47L97.26,137.492L107.713,165.657L64.181,136.47Z" style="fill:rgb(181,181,181);stroke:black;stroke-opacity:0;stroke-width:1px;"/>
        </g>
        <g transform="matrix(1,0,0,1,47.857877,-9.73044)">
            <path d="M65.067,135.737C65.067,135.737 60.658,148.231 68.076,176.955C88.352,171.218 107.119,166.388 107.119,166.388L65.067,135.737Z" style="fill:rgb(154,154,154);stroke:black;stroke-opacity:0;stroke-width:1px;"/>
        </g>
        <g transform="matrix(-1,0,0,1,308.705581,-9.73044)">
            <path d="M65.639,136.47C65.639,136.47 60.658,148.231 68.076,176.955C88.352,171.218 108.29,166.258 108.29,166.258L65.639,136.47Z" style="fill:rgb(139,139,139);stroke:black;stroke-opacity:0;stroke-width:1px;"/>
        </g>
        <g transform="matrix(1.001064,0,0,1.008175,47.785022,-11.38549)">
            <path d="M108.078,166.514L68.484,176.955C68.484,176.955 70.694,190.294 86.413,202.81C93.686,190.623 108.078,166.514 108.078,166.514Z" style="fill:rgb(181,181,181);stroke:black;stroke-opacity:0;stroke-width:1px;"/>
        </g>
        <g transform="matrix(-1.001064,0,0,1.008175,308.562242,-11.38549)">
            <path d="M108.078,166.514L68.484,176.955C68.484,176.955 70.694,190.294 86.413,202.81C93.686,190.623 108.078,166.514 108.078,166.514Z" style="fill:rgb(181,181,181);stroke:black;stroke-opacity:0;stroke-width:1px;"/>
        </g>
        <g transform="matrix(1,0,0,1,47.857877,-9.73044)">
            <path d="M110.786,192.755L87.686,202.972C87.686,202.972 103.868,216.452 130.102,216.767C119.897,204.327 110.786,192.755 110.786,192.755Z" style="fill:rgb(154,154,154);stroke:black;stroke-opacity:0;stroke-width:1px;"/>
        </g>
        <g transform="matrix(-1,0,0,1,308.361312,-9.73044)">
            <path d="M110.786,192.755L87.361,202.813C87.361,202.813 103.868,216.452 130.102,216.767C119.897,204.327 110.786,192.755 110.786,192.755Z" style="fill:rgb(154,154,154);stroke:black;stroke-opacity:0;stroke-width:1px;"/>
        </g>
    </g>
</svg>
